<svg xmlns="http://www.w3.org/2000/svg" xmlns:xlink="http://www.w3.org/1999/xlink" width="930" height="848" contentScriptType="application/ecmascript" contentStyleType="text/css" preserveAspectRatio="none" version="1.1" viewBox="0 0 930 848" zoomAndPan="magnify" style="width:930px;height:848px"><defs><filter id="f1p684lscd9bn4" width="300%" height="300%" x="-1" y="-1"><feGaussianBlur result="blurOut" stdDeviation="2"/><feColorMatrix in="blurOut" result="blurOut2" type="matrix" values="0 0 0 0 0 0 0 0 0 0 0 0 0 0 0 0 0 0 .4 0"/><feOffset dx="4" dy="4" in="blurOut2" result="blurOut3"/><feBlend in="SourceGraphic" in2="blurOut3" mode="normal"/></filter></defs><g><line x1="36" x2="36" y1="65.297" y2="775.086" stroke="#A80036" stroke-dasharray="5 5" stroke-width="1"/><line x1="329.5" x2="329.5" y1="65.297" y2="775.086" stroke="#A80036" stroke-dasharray="5 5" stroke-width="1"/><line x1="654.5" x2="654.5" y1="65.297" y2="775.086" stroke="#A80036" stroke-dasharray="5 5" stroke-width="1"/><line x1="900.5" x2="900.5" y1="65.297" y2="775.086" stroke="#A80036" stroke-dasharray="5 5" stroke-width="1"/><rect width="53" height="30.297" x="8" y="30" fill="#FEFECE" stroke="#A80036" stroke-width="1.5" filter="url(#f1p684lscd9bn4)"/><text x="15" y="49.995" fill="#000" font-family="sans-serif" font-size="14" lengthAdjust="spacingAndGlyphs" textLength="39">Client</text><rect width="53" height="30.297" x="8" y="774.086" fill="#FEFECE" stroke="#A80036" stroke-width="1.5" filter="url(#f1p684lscd9bn4)"/><text x="15" y="794.081" fill="#000" font-family="sans-serif" font-size="14" lengthAdjust="spacingAndGlyphs" textLength="39">Client</text><rect width="58" height="30.297" x="298.5" y="30" fill="#FEFECE" stroke="#A80036" stroke-width="1.5" filter="url(#f1p684lscd9bn4)"/><text x="305.5" y="49.995" fill="#000" font-family="sans-serif" font-size="14" lengthAdjust="spacingAndGlyphs" textLength="44">Server</text><rect width="58" height="30.297" x="298.5" y="774.086" fill="#FEFECE" stroke="#A80036" stroke-width="1.5" filter="url(#f1p684lscd9bn4)"/><text x="305.5" y="794.081" fill="#000" font-family="sans-serif" font-size="14" lengthAdjust="spacingAndGlyphs" textLength="44">Server</text><rect width="58" height="30.297" x="623.5" y="30" fill="#FEFECE" stroke="#A80036" stroke-width="1.5" filter="url(#f1p684lscd9bn4)"/><text x="630.5" y="49.995" fill="#000" font-family="sans-serif" font-size="14" lengthAdjust="spacingAndGlyphs" textLength="44">Library</text><rect width="58" height="30.297" x="623.5" y="774.086" fill="#FEFECE" stroke="#A80036" stroke-width="1.5" filter="url(#f1p684lscd9bn4)"/><text x="630.5" y="794.081" fill="#000" font-family="sans-serif" font-size="14" lengthAdjust="spacingAndGlyphs" textLength="44">Library</text><text x="877.5" y="61.995" fill="#000" font-family="sans-serif" font-size="14" lengthAdjust="spacingAndGlyphs" textLength="40">Users</text><path fill="#FEFECE" stroke="#000" stroke-width="1.5" d="M882.5,13 C882.5,3 900.5,3 900.5,3 C900.5,3 918.5,3 918.5,13 L918.5,39 C918.5,49 900.5,49 900.5,49 C900.5,49 882.5,49 882.5,39 L882.5,13" filter="url(#f1p684lscd9bn4)"/><path fill="none" stroke="#000" stroke-width="1.5" d="M882.5,13 C882.5,23 900.5,23 900.5,23 C900.5,23 918.5,23 918.5,13"/><text x="877.5" y="787.081" fill="#000" font-family="sans-serif" font-size="14" lengthAdjust="spacingAndGlyphs" textLength="40">Users</text><path fill="#FEFECE" stroke="#000" stroke-width="1.5" d="M882.5,800.3828 C882.5,790.3828 900.5,790.3828 900.5,790.3828 C900.5,790.3828 918.5,790.3828 918.5,800.3828 L918.5,826.3828 C918.5,836.3828 900.5,836.3828 900.5,836.3828 C900.5,836.3828 882.5,836.3828 882.5,826.3828 L882.5,800.3828" filter="url(#f1p684lscd9bn4)"/><path fill="none" stroke="#000" stroke-width="1.5" d="M882.5,800.3828 C882.5,810.3828 900.5,810.3828 900.5,810.3828 C900.5,810.3828 918.5,810.3828 918.5,800.3828"/><polygon fill="#A80036" stroke="#A80036" stroke-width="1" points="317.5 92.43 327.5 96.43 317.5 100.43 321.5 96.43"/><line x1="36.5" x2="323.5" y1="96.43" y2="96.43" stroke="#A80036" stroke-width="1"/><text x="43.5" y="91.364" fill="#000" font-family="sans-serif" font-size="13" font-weight="bold" lengthAdjust="spacingAndGlyphs" textLength="9">1</text><text x="56.5" y="92.57" fill="#000" font-family="monospace" font-size="13" lengthAdjust="spacingAndGlyphs" textLength="128">start(username?)</text><line x1="329.5" x2="371.5" y1="125.563" y2="125.563" stroke="#A80036" stroke-width="1"/><line x1="371.5" x2="371.5" y1="125.563" y2="138.563" stroke="#A80036" stroke-width="1"/><line x1="330.5" x2="371.5" y1="138.563" y2="138.563" stroke="#A80036" stroke-width="1"/><polygon fill="#A80036" stroke="#A80036" stroke-width="1" points="340.5 134.563 330.5 138.563 340.5 142.563 336.5 138.563"/><text x="336.5" y="120.497" fill="#000" font-family="sans-serif" font-size="13" font-weight="bold" lengthAdjust="spacingAndGlyphs" textLength="9">2</text><text x="349.5" y="120.497" fill="#000" font-family="sans-serif" font-size="13" lengthAdjust="spacingAndGlyphs" textLength="127">Create userHandle?</text><line x1="329.5" x2="371.5" y1="167.695" y2="167.695" stroke="#A80036" stroke-width="1"/><line x1="371.5" x2="371.5" y1="167.695" y2="180.695" stroke="#A80036" stroke-width="1"/><line x1="330.5" x2="371.5" y1="180.695" y2="180.695" stroke="#A80036" stroke-width="1"/><polygon fill="#A80036" stroke="#A80036" stroke-width="1" points="340.5 176.695 330.5 180.695 340.5 184.695 336.5 180.695"/><text x="336.5" y="162.629" fill="#000" font-family="sans-serif" font-size="13" font-weight="bold" lengthAdjust="spacingAndGlyphs" textLength="9">3</text><text x="349.5" y="162.629" fill="#000" font-family="sans-serif" font-size="13" lengthAdjust="spacingAndGlyphs" textLength="107">Verify password?</text><polygon fill="#A80036" stroke="#A80036" stroke-width="1" points="642.5 205.828 652.5 209.828 642.5 213.828 646.5 209.828"/><line x1="329.5" x2="648.5" y1="209.828" y2="209.828" stroke="#A80036" stroke-width="1"/><text x="336.5" y="204.762" fill="#000" font-family="sans-serif" font-size="13" font-weight="bold" lengthAdjust="spacingAndGlyphs" textLength="9">4</text><text x="349.5" y="205.969" fill="#000" font-family="monospace" font-size="13" lengthAdjust="spacingAndGlyphs" textLength="232">start(username?, userHandle?)</text><line x1="654.5" x2="696.5" y1="238.961" y2="238.961" stroke="#A80036" stroke-width="1"/><line x1="696.5" x2="696.5" y1="238.961" y2="251.961" stroke="#A80036" stroke-width="1"/><line x1="655.5" x2="696.5" y1="251.961" y2="251.961" stroke="#A80036" stroke-width="1"/><polygon fill="#A80036" stroke="#A80036" stroke-width="1" points="665.5 247.961 655.5 251.961 665.5 255.961 661.5 251.961"/><text x="661.5" y="233.895" fill="#000" font-family="sans-serif" font-size="13" font-weight="bold" lengthAdjust="spacingAndGlyphs" textLength="9">5</text><text x="674.5" y="233.895" fill="#000" font-family="sans-serif" font-size="13" lengthAdjust="spacingAndGlyphs" textLength="125">Generate challenge</text><polygon fill="#A80036" stroke="#A80036" stroke-width="1" points="888.5 277.094 898.5 281.094 888.5 285.094 892.5 281.094"/><line x1="654.5" x2="894.5" y1="281.094" y2="281.094" stroke="#A80036" stroke-width="1"/><text x="661.5" y="276.028" fill="#000" font-family="sans-serif" font-size="13" font-weight="bold" lengthAdjust="spacingAndGlyphs" textLength="9">6</text><text x="674.5" y="277.234" fill="#000" font-family="monospace" font-size="13" lengthAdjust="spacingAndGlyphs" textLength="200">listCredentials(username)</text><polygon fill="#A80036" stroke="#A80036" stroke-width="1" points="665.5 306.227 655.5 310.227 665.5 314.227 661.5 310.227"/><line x1="659.5" x2="899.5" y1="310.227" y2="310.227" stroke="#A80036" stroke-dasharray="2 2" stroke-width="1"/><text x="671.5" y="305.161" fill="#000" font-family="sans-serif" font-size="13" font-weight="bold" lengthAdjust="spacingAndGlyphs" textLength="9">7</text><text x="684.5" y="305.161" fill="#000" font-family="sans-serif" font-size="13" lengthAdjust="spacingAndGlyphs" textLength="89">Credential IDs</text><polygon fill="#A80036" stroke="#A80036" stroke-width="1" points="340.5 335.359 330.5 339.359 340.5 343.359 336.5 339.359"/><line x1="334.5" x2="653.5" y1="339.359" y2="339.359" stroke="#A80036" stroke-dasharray="2 2" stroke-width="1"/><text x="346.5" y="334.293" fill="#000" font-family="sans-serif" font-size="13" font-weight="bold" lengthAdjust="spacingAndGlyphs" textLength="9">8</text><text x="359.5" y="335.5" fill="#000" font-family="monospace" font-size="13" lengthAdjust="spacingAndGlyphs" textLength="288">request: PublicKeyCredential*Options</text><polygon fill="#A80036" stroke="#A80036" stroke-width="1" points="47.5 364.492 37.5 368.492 47.5 372.492 43.5 368.492"/><line x1="41.5" x2="328.5" y1="368.492" y2="368.492" stroke="#A80036" stroke-width="1"/><text x="53.5" y="363.426" fill="#000" font-family="sans-serif" font-size="13" font-weight="bold" lengthAdjust="spacingAndGlyphs" textLength="9">9</text><text x="66.5" y="364.633" fill="#000" font-family="monospace" font-size="13" lengthAdjust="spacingAndGlyphs" textLength="256">navigator.credentials.*(request)</text><polygon fill="#A80036" stroke="#A80036" stroke-width="1" points="317.5 393.625 327.5 397.625 317.5 401.625 321.5 397.625"/><line x1="36.5" x2="323.5" y1="397.625" y2="397.625" stroke="#A80036" stroke-dasharray="2 2" stroke-width="1"/><text x="43.5" y="392.559" fill="#000" font-family="sans-serif" font-size="13" font-weight="bold" lengthAdjust="spacingAndGlyphs" textLength="18">10</text><text x="65.5" y="393.766" fill="#000" font-family="monospace" font-size="13" lengthAdjust="spacingAndGlyphs" textLength="232">response: PublicKeyCredential</text><polygon fill="#A80036" stroke="#A80036" stroke-width="1" points="642.5 422.758 652.5 426.758 642.5 430.758 646.5 426.758"/><line x1="329.5" x2="648.5" y1="426.758" y2="426.758" stroke="#A80036" stroke-width="1"/><text x="336.5" y="421.692" fill="#000" font-family="sans-serif" font-size="13" font-weight="bold" lengthAdjust="spacingAndGlyphs" textLength="18">11</text><text x="358.5" y="422.898" fill="#000" font-family="monospace" font-size="13" lengthAdjust="spacingAndGlyphs" textLength="200">finish(request, response)</text><line x1="654.5" x2="696.5" y1="455.891" y2="455.891" stroke="#A80036" stroke-width="1"/><line x1="696.5" x2="696.5" y1="455.891" y2="468.891" stroke="#A80036" stroke-width="1"/><line x1="655.5" x2="696.5" y1="468.891" y2="468.891" stroke="#A80036" stroke-width="1"/><polygon fill="#A80036" stroke="#A80036" stroke-width="1" points="665.5 464.891 655.5 468.891 665.5 472.891 661.5 468.891"/><text x="661.5" y="450.825" fill="#000" font-family="sans-serif" font-size="13" font-weight="bold" lengthAdjust="spacingAndGlyphs" textLength="18">12</text><text x="683.5" y="450.825" fill="#000" font-family="sans-serif" font-size="13" lengthAdjust="spacingAndGlyphs" textLength="52">Validate</text><text x="739.5" y="453.105" fill="#000" font-family="monospace" font-size="13" lengthAdjust="spacingAndGlyphs" textLength="152">(request, response)</text><polygon fill="#A80036" stroke="#A80036" stroke-width="1" points="888.5 494.023 898.5 498.023 888.5 502.023 892.5 498.023"/><line x1="654.5" x2="894.5" y1="498.023" y2="498.023" stroke="#A80036" stroke-width="1"/><text x="661.5" y="492.957" fill="#000" font-family="sans-serif" font-size="13" font-weight="bold" lengthAdjust="spacingAndGlyphs" textLength="18">13</text><text x="683.5" y="494.164" fill="#000" font-family="monospace" font-size="13" lengthAdjust="spacingAndGlyphs" textLength="200">getPublicKey(response.id)</text><polygon fill="#A80036" stroke="#A80036" stroke-width="1" points="665.5 523.156 655.5 527.156 665.5 531.156 661.5 527.156"/><line x1="659.5" x2="899.5" y1="527.156" y2="527.156" stroke="#A80036" stroke-dasharray="2 2" stroke-width="1"/><text x="671.5" y="522.09" fill="#000" font-family="sans-serif" font-size="13" font-weight="bold" lengthAdjust="spacingAndGlyphs" textLength="18">14</text><text x="693.5" y="522.09" fill="#000" font-family="sans-serif" font-size="13" lengthAdjust="spacingAndGlyphs" textLength="63">Public key</text><line x1="654.5" x2="696.5" y1="556.289" y2="556.289" stroke="#A80036" stroke-width="1"/><line x1="696.5" x2="696.5" y1="556.289" y2="569.289" stroke="#A80036" stroke-width="1"/><line x1="655.5" x2="696.5" y1="569.289" y2="569.289" stroke="#A80036" stroke-width="1"/><polygon fill="#A80036" stroke="#A80036" stroke-width="1" points="665.5 565.289 655.5 569.289 665.5 573.289 661.5 569.289"/><text x="661.5" y="551.223" fill="#000" font-family="sans-serif" font-size="13" font-weight="bold" lengthAdjust="spacingAndGlyphs" textLength="18">15</text><text x="683.5" y="551.223" fill="#000" font-family="sans-serif" font-size="13" lengthAdjust="spacingAndGlyphs" textLength="36">Verify</text><text x="723.5" y="553.503" fill="#000" font-family="monospace" font-size="13" lengthAdjust="spacingAndGlyphs" textLength="64">response</text><text x="791.5" y="551.223" fill="#000" font-family="sans-serif" font-size="13" lengthAdjust="spacingAndGlyphs" textLength="60">signature</text><polygon fill="#A80036" stroke="#A80036" stroke-width="1" points="340.5 594.422 330.5 598.422 340.5 602.422 336.5 598.422"/><line x1="334.5" x2="653.5" y1="598.422" y2="598.422" stroke="#A80036" stroke-dasharray="2 2" stroke-width="1"/><text x="346.5" y="593.356" fill="#000" font-family="sans-serif" font-size="13" font-weight="bold" lengthAdjust="spacingAndGlyphs" textLength="18">16</text><text x="368.5" y="594.563" fill="#000" font-family="monospace" font-size="13" lengthAdjust="spacingAndGlyphs" textLength="112">result: Result</text><line x1="329.5" x2="371.5" y1="627.555" y2="627.555" stroke="#A80036" stroke-width="1"/><line x1="371.5" x2="371.5" y1="627.555" y2="640.555" stroke="#A80036" stroke-width="1"/><line x1="330.5" x2="371.5" y1="640.555" y2="640.555" stroke="#A80036" stroke-width="1"/><polygon fill="#A80036" stroke="#A80036" stroke-width="1" points="340.5 636.555 330.5 640.555 340.5 644.555 336.5 640.555"/><text x="336.5" y="622.489" fill="#000" font-family="sans-serif" font-size="13" font-weight="bold" lengthAdjust="spacingAndGlyphs" textLength="18">17</text><text x="358.5" y="622.489" fill="#000" font-family="sans-serif" font-size="13" lengthAdjust="spacingAndGlyphs" textLength="46">Inspect</text><text x="408.5" y="624.769" fill="#000" font-family="monospace" font-size="13" lengthAdjust="spacingAndGlyphs" textLength="48">result</text><line x1="42.5" x2="52.5" y1="664.688" y2="674.688" stroke="#A80036" stroke-width="2"/><line x1="42.5" x2="52.5" y1="674.688" y2="664.688" stroke="#A80036" stroke-width="2"/><line x1="48.5" x2="328.5" y1="669.688" y2="669.688" stroke="#A80036" stroke-width="1"/><text x="53.5" y="664.622" fill="#000" font-family="sans-serif" font-size="13" font-weight="bold" lengthAdjust="spacingAndGlyphs" textLength="18">18</text><text x="75.5" y="664.622" fill="#000" font-family="sans-serif" font-size="13" lengthAdjust="spacingAndGlyphs" textLength="92">Report failure?</text><polygon fill="#A80036" stroke="#A80036" stroke-width="1" points="888.5 694.82 898.5 698.82 888.5 702.82 892.5 698.82"/><line x1="329.5" x2="894.5" y1="698.82" y2="698.82" stroke="#A80036" stroke-width="1"/><text x="336.5" y="693.754" fill="#000" font-family="sans-serif" font-size="13" font-weight="bold" lengthAdjust="spacingAndGlyphs" textLength="18">19</text><text x="358.5" y="693.754" fill="#000" font-family="sans-serif" font-size="13" lengthAdjust="spacingAndGlyphs" textLength="138">Store new credential?</text><polygon fill="#A80036" stroke="#A80036" stroke-width="1" points="888.5 723.953 898.5 727.953 888.5 731.953 892.5 727.953"/><line x1="329.5" x2="894.5" y1="727.953" y2="727.953" stroke="#A80036" stroke-width="1"/><text x="336.5" y="722.887" fill="#000" font-family="sans-serif" font-size="13" font-weight="bold" lengthAdjust="spacingAndGlyphs" textLength="18">20</text><text x="358.5" y="722.887" fill="#000" font-family="sans-serif" font-size="13" lengthAdjust="spacingAndGlyphs" textLength="158">Update signature count?</text><ellipse cx="36" cy="756.336" fill="none" stroke="#A80036" stroke-width="1.5" rx="4" ry="4"/><polygon fill="#A80036" stroke="#A80036" stroke-width="1" points="53 753.086 43 757.086 53 761.086 49 757.086"/><line x1="51" x2="328.5" y1="757.086" y2="757.086" stroke="#A80036" stroke-width="1"/><text x="53.5" y="752.02" fill="#000" font-family="sans-serif" font-size="13" font-weight="bold" lengthAdjust="spacingAndGlyphs" textLength="18">21</text><text x="75.5" y="752.02" fill="#000" font-family="sans-serif" font-size="13" lengthAdjust="spacingAndGlyphs" textLength="104">Report success?</text></g></svg>